<svg xmlns="http://www.w3.org/2000/svg" role="img" aria-label="Vampire" viewBox="0 0 100 100"><path d="M18 86 L30 58 L50 74 L70 58 L82 86 Z" fill="#B8344A"/><circle cx="50" cy="52" r="23" fill="#DCD2EA"/><path d="M27 50 Q27 28 50 28 Q73 28 73 50 Q66 38 56 38 L50 46 L44 38 Q34 38 27 50 Z" fill="#2B1E3A"/><rect x="39" y="50" width="6" height="11" rx="3" fill="#1A0F12" transform="rotate(-8 42 55.5)"/><rect x="55" y="50" width="6" height="11" rx="3" fill="#1A0F12" transform="rotate(-8 58 55.5)"/><path d="M44 66 Q50 69 56 66" stroke="#1A0F12" stroke-width="2" stroke-linecap="round" fill="none"/><path d="M45.5 66.8 L47 71 L48.5 67.6 Z M51.5 67.6 L53 71 L54.5 66.8 Z" fill="#FFFFFF"/></svg>
