<svg xmlns="http://www.w3.org/2000/svg" role="img" aria-label="Frankenbot" viewBox="0 0 100 100"><rect x="18" y="52" width="10" height="8" rx="2" fill="#9A9AA2"/><rect x="72" y="52" width="10" height="8" rx="2" fill="#9A9AA2"/><rect x="26" y="26" width="48" height="52" rx="11" fill="#8CC68B"/><path d="M26 37 V30 Q26 24 33 24 H67 Q74 24 74 30 V37 L68 33 L62 37 L56 33 L50 37 L44 33 L38 37 L32 33 Z" fill="#2B2A30"/><rect x="38" y="46" width="7" height="13" rx="3.5" fill="#1A0F12" transform="rotate(-8 41.5 52.5)"/><rect x="55" y="46" width="7" height="13" rx="3.5" fill="#1A0F12" transform="rotate(-8 58.5 52.5)"/><path d="M40 68 H60 M44 65 V71 M50 65 V71 M56 65 V71" stroke="#3E6B3D" stroke-width="2.2" stroke-linecap="round"/></svg>
