<svg xmlns="http://www.w3.org/2000/svg" viewBox="0 0 200 200"><g><ellipse cx="100.0" cy="184.0" rx="44.0" ry="6.0" fill="#2A2238" fill-opacity="0.14" /><g><g><g transform="matrix(2.0 0.0 0.0 2.0 0.0 10.0)"><path d="M67 38 C93 31 94 70 70 66" fill="none" stroke="#8AB8D4" stroke-width="7.0" stroke-linecap="round" stroke-linejoin="round" /><path d="M29 52 L13 41 L10 46 L27 71 Z" fill="#55BDB1" /><path d="M29 52 L13 41 L10 46 L27 71 Z" fill="#000000" fill-opacity="0.13" /><rect x="7.0" y="37.0" width="9.0" height="13.0" rx="3.0" fill="#EFC45A" /><rect x="25.0" y="38.0" width="47.0" height="44.0" rx="12.0" fill="#55BDB1" /><ellipse cx="48.5" cy="38.0" rx="23.5" ry="5.0" fill="#EFC45A" /><ellipse cx="48.5" cy="37.0" rx="16.0" ry="2.0" fill="#000000" fill-opacity="0.13" /><ellipse cx="33.0" cy="47.0" rx="5.0" ry="3.0" transform="matrix(0.883 -0.469 0.469 0.883 -18.202 20.994)" fill="#FFFFFF" fill-opacity="0.35" /><g><g><g><rect x="38.5" y="51.0" width="5.0" height="10.0" rx="2.5" transform="matrix(0.996 -0.087 0.087 0.996 -4.725 3.786)" fill="#2A2238" /></g></g><g><g><rect x="54.5" y="51.0" width="5.0" height="10.0" rx="2.5" transform="matrix(0.996 0.087 -0.087 0.996 5.098 -4.755)" fill="#2A2238" /></g></g></g><g><g><path d="M45.5 68 Q49 71.5 52.5 68" fill="none" stroke="#2A2238" stroke-width="1.5" stroke-linecap="round" stroke-linejoin="round" /></g></g></g></g></g><g /></g></svg>
