<svg xmlns="http://www.w3.org/2000/svg" viewBox="0 0 200 200"><g><ellipse cx="100.0" cy="184.0" rx="44.0" ry="6.0" fill="#2A2238" fill-opacity="0.14" /><g><g><g transform="matrix(2.0 0.0 0.0 2.0 0.0 10.0)"><path d="M46 37 V18" fill="none" stroke="#6F9E65" stroke-width="3.0" stroke-linecap="round" stroke-linejoin="round" /><path d="M45 28 Q28 29 29 17 Q44 15 45 28 Z M47 22 Q49 9 61 11 Q63 24 47 22 Z" fill="#6F9E65" /><path d="M28 33 H61 V57 Q64 61 75 63 Q85 66 84 76 Q84 83 74 83 H29 Q24 83 24 76 Z" fill="#8EBCB0" /><rect x="25.0" y="31.0" width="39.0" height="9.0" rx="3.0" fill="#BDA1D1" /><rect x="24.0" y="77.0" width="60.0" height="7.0" rx="3.0" fill="#BDA1D1" /><ellipse cx="33.0" cy="46.0" rx="4.0" ry="3.0" transform="matrix(0.883 -0.469 0.469 0.883 -17.733 20.877)" fill="#FFFFFF" fill-opacity="0.35" /><g><g><g><rect x="34.5" y="49.0" width="5.0" height="10.0" rx="2.5" transform="matrix(0.996 -0.087 0.087 0.996 -4.566 3.43)" fill="#2A2238" /></g></g><g><g><rect x="50.5" y="49.0" width="5.0" height="10.0" rx="2.5" transform="matrix(0.996 0.087 -0.087 0.996 4.908 -4.414)" fill="#2A2238" /></g></g></g><g><g><path d="M41.5 66 Q45 69.5 48.5 66" fill="none" stroke="#2A2238" stroke-width="1.5" stroke-linecap="round" stroke-linejoin="round" /></g></g></g></g></g><g /></g></svg>
