<svg xmlns="http://www.w3.org/2000/svg" viewBox="0 0 200 200"><g><ellipse cx="100.0" cy="184.0" rx="44.0" ry="6.0" fill="#2A2238" fill-opacity="0.14" /><g><g><g transform="matrix(2.0 0.0 0.0 2.0 0.0 10.0)"><path d="M50 30 Q46 21 52 16" fill="none" stroke="#91B4AE" stroke-width="4.0" stroke-linecap="round" stroke-linejoin="round" /><path d="M51 24 Q29 24 31 12 Q49 10 51 24 Z" fill="#639881" /><path d="M50 27 C64 27 59 41 70 54 C90 83 62 84 50 84 C37 84 10 82 29 54 C41 40 36 27 50 27 Z" fill="#AEC46D" /><ellipse cx="35.0" cy="57.0" rx="5.0" ry="8.0" transform="matrix(0.883 -0.469 0.469 0.883 -22.663 23.103)" fill="#FFFFFF" fill-opacity="0.35" /><g><g><g><rect x="38.5" y="52.0" width="5.0" height="10.0" rx="2.5" transform="matrix(0.996 -0.087 0.087 0.996 -4.812 3.79)" fill="#2A2238" /></g></g><g><g><rect x="56.5" y="52.0" width="5.0" height="10.0" rx="2.5" transform="matrix(0.996 0.087 -0.087 0.996 5.192 -4.925)" fill="#2A2238" /></g></g></g><g><g><path d="M46.5 70 Q50 73.5 53.5 70" fill="none" stroke="#2A2238" stroke-width="1.5" stroke-linecap="round" stroke-linejoin="round" /></g></g></g></g></g><g /></g></svg>
