<svg xmlns="http://www.w3.org/2000/svg" viewBox="0 0 200 200"><g><ellipse cx="100.0" cy="184.0" rx="44.0" ry="6.0" fill="#2A2238" fill-opacity="0.14" /><g><g><g transform="matrix(2.0 0.0 0.0 2.0 0.0 10.0)"><rect x="31.0" y="29.0" width="38.0" height="47.0" rx="6.0" fill="#C194E4" /><ellipse cx="50.0" cy="29.0" rx="27.0" ry="7.0" fill="#C194E4" /><ellipse cx="50.0" cy="77.0" rx="27.0" ry="7.0" fill="#C194E4" /><path d="M32 36 H68 M32 41 H68 M32 68 H68 M32 73 H68" fill="none" stroke="#000000" stroke-width="1.8" stroke-opacity="0.13" stroke-linecap="round" stroke-linejoin="round" /><path d="M69 70 Q87 69 82 80 Q79 87 72 81" fill="none" stroke="#F2C55E" stroke-width="3.0" stroke-linecap="round" stroke-linejoin="round" /><ellipse cx="33.0" cy="27.0" rx="6.0" ry="2.0" transform="matrix(0.883 -0.469 0.469 0.883 -8.813 18.653)" fill="#FFFFFF" fill-opacity="0.35" /><g><g><g><rect x="39.5" y="47.0" width="5.0" height="10.0" rx="2.5" transform="matrix(0.996 -0.087 0.087 0.996 -4.372 3.858)" fill="#2A2238" /></g></g><g><g><rect x="55.5" y="47.0" width="5.0" height="10.0" rx="2.5" transform="matrix(0.996 0.087 -0.087 0.996 4.753 -4.857)" fill="#2A2238" /></g></g></g><g><g><path d="M46.5 64 Q50 67.5 53.5 64" fill="none" stroke="#2A2238" stroke-width="1.5" stroke-linecap="round" stroke-linejoin="round" /></g></g></g></g></g><g /></g></svg>
