<svg xmlns="http://www.w3.org/2000/svg" viewBox="0 0 200 200"><g><ellipse cx="100.0" cy="184.0" rx="44.0" ry="6.0" fill="#2A2238" fill-opacity="0.14" /><g><g><g transform="matrix(2.0 0.0 0.0 2.0 0.0 10.0)"><path d="M26 48 L48 21 Q50 18 52 21 L74 48 Z" fill="#78B6DE" /><path d="M50 20 L74 48 H50 Z" fill="#000000" fill-opacity="0.13" /><path d="M12 49 Q10 48 12 53 L30 79 Q32 82 37 82 H65 Q69 82 72 78 L88 52 Q90 48 86 49 L50 59 Z" fill="#78B6DE" /><path d="M12 50 L50 59 L31 80 Z" fill="#000000" fill-opacity="0.13" /><path d="M50 59 L88 50 L70 80 Z" fill="#FFFFFF" fill-opacity="0.35" /><g><g><g><rect x="38.75" y="60.0" width="4.5" height="8.0" rx="2.25" transform="matrix(0.996 -0.087 0.087 0.996 -5.422 3.817)" fill="#2A2238" /></g></g><g><g><rect x="56.75" y="60.0" width="4.5" height="8.0" rx="2.25" transform="matrix(0.996 0.087 -0.087 0.996 5.802 -4.899)" fill="#2A2238" /></g></g></g><g><g><path d="M46.5 75 Q50 78.5 53.5 75" fill="none" stroke="#2A2238" stroke-width="1.5" stroke-linecap="round" stroke-linejoin="round" /></g></g></g></g></g><g /></g></svg>
