<svg xmlns="http://www.w3.org/2000/svg" viewBox="0 0 200 200"><g><ellipse cx="100.0" cy="184.0" rx="44.0" ry="6.0" fill="#2A2238" fill-opacity="0.14" /><g><g><g transform="matrix(2.0 0.0 0.0 2.0 0.0 10.0)"><path d="M34 44 V31 C34 12 66 12 66 31 V44" fill="none" stroke="#C5A4D9" stroke-width="8.0" stroke-linecap="round" stroke-linejoin="round" /><path d="M35 33 V30 Q36 20 44 20" fill="none" stroke="#F7F7FC" stroke-width="2.0" stroke-linecap="round" stroke-linejoin="round" /><rect x="23.0" y="39.0" width="54.0" height="43.0" rx="12.0" fill="#91B59B" /><ellipse cx="33.0" cy="46.0" rx="6.0" ry="3.0" transform="matrix(0.883 -0.469 0.469 0.883 -17.733 20.877)" fill="#FFFFFF" fill-opacity="0.35" /><g><g><g><rect x="38.5" y="50.0" width="5.0" height="10.0" rx="2.5" transform="matrix(0.996 -0.087 0.087 0.996 -4.638 3.783)" fill="#2A2238" /></g></g><g><g><rect x="56.5" y="50.0" width="5.0" height="10.0" rx="2.5" transform="matrix(0.996 0.087 -0.087 0.996 5.018 -4.933)" fill="#2A2238" /></g></g></g><g><g><path d="M46.5 67 Q50 70.5 53.5 67" fill="none" stroke="#2A2238" stroke-width="1.5" stroke-linecap="round" stroke-linejoin="round" /></g></g><ellipse cx="50.0" cy="75.0" rx="2.3" ry="2.3" fill="#E7C05E" /></g></g></g><g /></g></svg>
